<svg xmlns="http://www.w3.org/2000/svg" viewBox="0 0 1600 220" preserveAspectRatio="none">
  <defs>
    <linearGradient id="iceFace" x1="0" y1="0" x2="0" y2="1">
      <stop offset="0%" stop-color="#f8fcff"/>
      <stop offset="75%" stop-color="#e6f2fc"/>
      <stop offset="100%" stop-color="#d0e2f1"/>
    </linearGradient>
    <filter id="shadow" x="-10%" y="-10%" width="120%" height="130%">
      <feDropShadow dx="0" dy="4" stdDeviation="5" flood-color="#8ab1cf" flood-opacity="0.28"/>
    </filter>
  </defs>

  <path d="M0,34 C80,44 140,20 216,30 C304,42 362,18 444,28 C532,40 590,14 670,24 C760,36 822,10 910,26 C998,42 1080,18 1164,30 C1248,42 1308,14 1388,28 C1460,38 1526,14 1600,24 L1600,96 C1568,106 1562,154 1542,186 C1518,220 1488,204 1486,166 C1482,128 1480,104 1450,116 C1428,126 1428,156 1418,176 C1408,196 1384,198 1376,168 C1368,138 1372,112 1348,114 C1326,116 1316,160 1300,170 C1282,182 1260,174 1260,148 C1260,114 1256,96 1228,104 C1206,110 1196,148 1176,154 C1158,162 1140,152 1138,128 C1134,90 1128,86 1098,100 C1068,114 1060,160 1032,162 C1000,166 988,124 968,120 C942,116 926,170 892,170 C860,170 850,120 826,120 C798,120 790,184 756,184 C716,184 710,112 676,114 C648,116 632,152 610,154 C584,158 574,120 548,120 C520,120 512,166 484,166 C454,166 448,124 422,122 C392,120 382,176 346,176 C308,176 298,124 266,124 C236,124 224,164 198,164 C164,164 156,106 124,106 C92,106 94,162 70,182 C46,204 14,194 0,158 Z" fill="url(#iceFace)" filter="url(#shadow)"/>
</svg>
